<svg width="24" height="24" viewBox="0 0 24 24" fill="none" xmlns="http://www.w3.org/2000/svg">
<path d="M22.5459 11.2041L13.5459 2.20409C13.3886 2.04658 13.1881 1.93929 12.9697 1.89581C12.7514 1.85233 12.525 1.87461 12.3194 1.95983C12.1137 2.04505 11.9379 2.18938 11.8143 2.37455C11.6907 2.55972 11.6248 2.7774 11.625 3.00003V6.37503H7.5C7.20163 6.37503 6.91548 6.49356 6.7045 6.70454C6.49353 6.91551 6.375 7.20166 6.375 7.50003V16.5C6.375 16.7984 6.49353 17.0845 6.7045 17.2955C6.91548 17.5065 7.20163 17.625 7.5 17.625H11.625V21C11.6248 21.2227 11.6907 21.4403 11.8143 21.6255C11.9379 21.8107 12.1137 21.955 12.3194 22.0402C12.525 22.1255 12.7514 22.1477 12.9697 22.1043C13.1881 22.0608 13.3886 21.9535 13.5459 21.796L22.5459 12.796C22.6505 12.6915 22.7335 12.5674 22.7901 12.4308C22.8467 12.2943 22.8759 12.1479 22.8759 12C22.8759 11.8522 22.8467 11.7058 22.7901 11.5692C22.7335 11.4327 22.6505 11.3086 22.5459 11.2041ZM13.875 18.2813V16.5C13.875 16.2017 13.7565 15.9155 13.5455 15.7045C13.3345 15.4936 13.0484 15.375 12.75 15.375H8.625V8.62503H12.75C13.0484 8.62503 13.3345 8.5065 13.5455 8.29553C13.7565 8.08455 13.875 7.7984 13.875 7.50003V5.71878L20.1562 12L13.875 18.2813ZM4.875 7.50003V16.5C4.875 16.7984 4.75647 17.0845 4.5455 17.2955C4.33452 17.5065 4.04837 17.625 3.75 17.625C3.45163 17.625 3.16548 17.5065 2.9545 17.2955C2.74353 17.0845 2.625 16.7984 2.625 16.5V7.50003C2.625 7.20166 2.74353 6.91551 2.9545 6.70454C3.16548 6.49356 3.45163 6.37503 3.75 6.37503C4.04837 6.37503 4.33452 6.49356 4.5455 6.70454C4.75647 6.91551 4.875 7.20166 4.875 7.50003Z" fill="#B36F00"/>
</svg>
