<svg width="379" height="508" viewBox="0 0 379 508" fill="none" xmlns="http://www.w3.org/2000/svg">
<g clip-path="url(#clip0_255_249)">
<path d="M240.008 364.947L246.28 403.848C246.417 408.948 246.073 453.47 245.799 458.526C230.878 494.513 208.873 479.531 208.673 478.407C208.659 473.418 196.176 409.347 196.15 404.333C194.866 404.325 193.574 404.344 192.294 404.333C192.546 403.933 193.208 404.092 193.615 404.089C211.993 403.896 221.663 365.136 240.011 364.947H240.008Z" fill="#F7CCB6"/>
<path d="M191.084 404.333L182.458 477.989C181.055 477.937 172.769 479.931 160.512 479.443C159.017 479.383 144.51 458.47 143.119 458.285C142.586 458.215 143.411 420.043 143.119 419.747C143.33 418.075 142.893 416.374 142.867 414.821C142.815 411.489 142.926 408.145 142.878 404.813C158.932 404.658 175.012 404.259 191.084 404.333Z" fill="#F7CCB6"/>
<path d="M276.419 80.4945C269.006 61.2455 266.235 47.5697 252.253 31.1165C226.84 1.19822 183.02 -9.70771 147.733 9.79648C146.801 10.3105 142.73 13.2284 142.415 13.2617C141.668 13.343 139.588 11.8896 138.626 12.3815C92.4517 36.1053 91.4229 79.6328 88.7102 91.6852C83.3479 115.516 70.2361 247.926 75.9723 253.647C81.738 259.397 87.4668 265.303 94.439 269.63C107.01 277.434 122.698 279.671 137.242 278.402C153.04 277.023 167.991 272.16 183.327 268.491C186.883 267.641 190.462 266.872 194.07 266.261C195.04 266.099 196.013 265.954 196.986 265.803C199.425 265.426 196.768 265.792 196.405 265.877C198.6 265.374 201.024 265.337 203.267 265.122C210.79 264.394 218.336 263.917 225.837 262.97C234.164 261.916 242.413 260.57 250.355 257.767C258.234 254.982 265.787 251.335 273.296 247.696C280.357 244.276 291.955 238.288 297.169 232.183C302.132 226.373 283.225 98.1792 276.415 80.4945H276.419Z" fill="#563C21"/>
<path d="M279.968 241.628C279.968 241.628 291.973 253.429 300.53 257.286C317.142 264.775 343.662 284.619 353.487 282.959C363.313 281.298 376.384 288.861 376.384 288.861C376.384 288.861 380.343 295.418 361.895 293.861C361.895 293.861 378.389 302.644 378.071 306.301C377.797 309.437 374.385 308.694 361.162 305.381C361.162 305.381 375.684 316.238 374.892 319.156C373.985 322.503 370.17 319.615 356.222 312.418C356.222 312.418 367.209 327.037 365.274 329.692C363.538 332.074 360.611 329.622 348.217 318.332C348.217 318.332 352.099 326.53 351.925 330.022C351.703 334.507 342.17 328.198 326.276 302.466C326.276 302.466 281.745 298.302 261.213 282.027L279.968 241.624V241.628Z" fill="#F7CCB6"/>
<path d="M350.826 332.274C346.515 332.274 336.619 320.898 325.731 303.343C323.481 303.11 313.29 301.96 301.244 299.256C282.925 295.144 269.266 289.593 260.639 282.755C260.302 282.489 260.195 282.03 260.376 281.642L279.132 241.239C279.258 240.966 279.509 240.773 279.805 240.718C280.101 240.666 280.405 240.759 280.619 240.969C280.738 241.088 292.606 252.7 300.914 256.443C306.913 259.15 314.307 263.517 321.457 267.744C334.195 275.274 347.362 283.055 353.335 282.049C363.372 280.351 376.302 287.748 376.85 288.062C376.983 288.14 377.098 288.251 377.179 288.384C377.59 289.064 378.045 290.595 377.161 292.023C375.814 294.186 372.102 295.174 365.84 295.015C367.25 295.836 368.941 296.849 370.61 297.936C378.263 302.906 379.111 305.063 378.996 306.386C378.907 307.403 378.537 308.128 377.867 308.605C376.235 309.767 373.09 309.267 365.159 307.33C366.31 308.254 367.631 309.349 368.938 310.484C375.543 316.246 376.11 318.228 375.791 319.404C375.536 320.351 375.066 320.961 374.359 321.268C372.516 322.067 369.585 320.514 362.509 316.764C361.499 316.227 360.415 315.654 359.249 315.04C360.159 316.346 361.236 317.936 362.265 319.574C367.002 327.111 366.765 329.234 366.029 330.243C365.507 330.961 364.859 331.36 364.104 331.438C361.906 331.66 358.735 329.108 350.756 321.886C351.814 324.578 352.961 328.017 352.862 330.07C352.784 331.671 351.781 332.1 351.355 332.211C351.193 332.252 351.015 332.274 350.834 332.274H350.826ZM262.364 281.753C282.696 297.304 325.928 301.509 326.364 301.549C326.653 301.575 326.912 301.738 327.064 301.986C334.854 314.593 340.471 321.501 343.813 325.073C348.561 330.151 350.615 330.576 350.904 330.414C350.922 330.395 350.989 330.269 351.004 329.981C351.137 327.311 348.435 320.957 347.381 318.735C347.192 318.335 347.31 317.858 347.666 317.596C348.021 317.333 348.513 317.359 348.839 317.655C357.336 325.395 362.21 329.774 363.908 329.596C364.064 329.581 364.26 329.515 364.523 329.152C364.53 329.141 365.311 327.914 360.692 320.562C358.235 316.653 355.508 313.01 355.478 312.973C355.219 312.629 355.234 312.152 355.511 311.823C355.789 311.494 356.259 311.401 356.644 311.597C359.212 312.925 361.421 314.093 363.364 315.125C368.915 318.069 372.587 320.014 373.612 319.567C373.671 319.541 373.845 319.463 373.996 318.916C374.004 318.864 374.119 317.44 367.598 311.771C364.171 308.794 360.641 306.146 360.604 306.12C360.252 305.858 360.134 305.381 360.322 304.981C360.511 304.582 360.959 304.375 361.384 304.482C369.574 306.534 375.488 308.014 376.787 307.093C376.927 306.993 377.094 306.801 377.146 306.216C377.275 304.752 371.313 299.918 361.458 294.671C361.07 294.464 360.881 294.012 361.007 293.594C361.129 293.173 361.532 292.899 361.973 292.936C372.594 293.835 375.025 291.923 375.573 291.058C375.954 290.458 375.795 289.83 375.677 289.519C373.86 288.517 362.302 282.4 353.642 283.865C347 284.985 334.136 277.382 320.513 269.331C313.404 265.13 306.058 260.788 300.148 258.125C292.839 254.83 283.28 246.058 280.26 243.188L262.364 281.746V281.753Z" fill="#F0AB88"/>
<path d="M349.131 299.682C347.925 299.682 347.129 299.327 346.714 298.617C346.459 298.173 346.611 297.611 347.051 297.352C347.495 297.097 348.058 297.248 348.317 297.688C348.705 298.077 352.995 297.936 361.429 293.058C361.869 292.803 362.435 292.955 362.694 293.395C362.95 293.839 362.798 294.401 362.357 294.66C358.919 296.649 355.496 298.199 352.713 299.031C351.263 299.463 350.075 299.678 349.131 299.678V299.682Z" fill="#F0AB88"/>
<path d="M350.852 315.099C350.534 315.099 350.223 314.933 350.049 314.637C349.794 314.193 349.945 313.631 350.386 313.372C352.839 311.952 360.237 304.707 360.255 300.318C360.255 299.807 360.67 299.397 361.181 299.397C361.691 299.397 362.106 299.815 362.102 300.325C362.08 306.043 353.439 313.742 351.311 314.974C351.166 315.059 351.004 315.099 350.848 315.099H350.852Z" fill="#F0AB88"/>
<path d="M99.0317 242.415C99.0317 242.415 87.0265 254.216 78.4704 258.074C61.8578 265.562 35.3383 285.407 25.5129 283.746C15.6874 282.086 2.6164 289.649 2.6164 289.649C2.6164 289.649 -1.34339 296.205 17.1048 294.648C17.1048 294.648 0.6106 303.432 0.928864 307.089C1.20272 310.225 4.6148 309.482 17.8375 306.168C17.8375 306.168 3.31584 317.026 4.1078 319.944C5.01448 323.291 8.82994 320.403 22.778 313.206C22.778 313.206 11.7905 327.825 13.726 330.48C15.4617 332.862 18.3889 330.41 30.7827 319.119C30.7827 319.119 26.9006 327.318 27.0746 330.809C27.2966 335.295 36.8297 328.986 52.7244 303.254C52.7244 303.254 97.2554 299.09 117.787 282.814L99.0317 242.412V242.415Z" fill="#F7CCB6"/>
<path d="M28.1773 333.061C27.9922 333.061 27.8183 333.039 27.6555 332.999C27.2299 332.888 26.2307 332.462 26.1493 330.857C26.0493 328.801 27.1929 325.366 28.255 322.673C20.2762 329.896 17.101 332.455 14.9064 332.226C14.1515 332.148 13.5038 331.749 12.982 331.031C12.2456 330.022 12.0124 327.899 16.7457 320.362C17.7745 318.724 18.8514 317.133 19.7618 315.828C18.5961 316.442 17.5154 317.015 16.5014 317.551C9.42562 321.301 6.49834 322.854 4.65167 322.056C3.94483 321.749 3.47483 321.139 3.21948 320.192C2.90122 319.016 3.46743 317.034 10.0732 311.272C11.3759 310.136 12.7008 309.045 13.8517 308.117C5.92102 310.055 2.77909 310.554 1.14337 309.393C0.473533 308.916 0.103459 308.187 0.0146417 307.174C-0.100081 305.85 0.747388 303.698 8.40052 298.724C10.0732 297.637 11.7608 296.623 13.1708 295.802C6.91282 295.965 3.19728 294.978 1.85021 292.81C0.962031 291.383 1.42092 289.852 1.8317 289.171C1.91312 289.038 2.02414 288.927 2.16107 288.85C2.70508 288.535 15.6318 281.139 25.6756 282.836C31.6449 283.842 44.8158 276.061 57.5537 268.532C64.7036 264.305 72.0976 259.937 78.0965 257.23C86.4047 253.488 98.273 241.872 98.3914 241.757C98.606 241.546 98.9058 241.454 99.2055 241.506C99.5016 241.561 99.7533 241.753 99.8791 242.027L118.634 282.43C118.816 282.818 118.705 283.277 118.372 283.543C109.745 290.381 96.0858 295.932 77.7672 300.044C65.7213 302.747 55.5294 303.898 53.2794 304.131C42.3955 321.686 32.4997 333.058 28.1847 333.061H28.1773ZM30.7826 318.202C30.975 318.202 31.1675 318.261 31.334 318.383C31.6893 318.646 31.8077 319.123 31.619 319.522C30.5679 321.745 27.8664 328.098 27.9959 330.769C28.0107 331.061 28.0773 331.183 28.0996 331.205C28.3882 331.364 30.4384 330.942 35.1865 325.861C38.5282 322.289 44.146 315.38 51.936 302.773C52.0877 302.526 52.3468 302.367 52.6354 302.337C53.0758 302.296 96.3079 298.091 116.636 282.541L98.7393 243.983C95.7194 246.853 86.1604 255.625 78.8515 258.92C72.9451 261.583 65.5954 265.928 58.49 270.126C44.8676 278.177 32.0001 285.78 25.361 284.66C16.705 283.199 5.14017 289.316 3.3268 290.314C3.20838 290.617 3.04555 291.25 3.43042 291.849C3.98183 292.714 6.40952 294.626 17.0306 293.728C17.471 293.691 17.8707 293.968 17.9965 294.386C18.1224 294.808 17.9336 295.259 17.545 295.462C7.68997 300.71 1.72808 305.54 1.85761 307.008C1.90942 307.592 2.07595 307.781 2.21658 307.884C3.51184 308.805 9.42932 307.326 17.6191 305.273C18.0446 305.166 18.4887 305.373 18.6812 305.773C18.8699 306.172 18.7515 306.645 18.3999 306.912C18.3629 306.938 14.8324 309.582 11.4055 312.562C4.88111 318.232 4.99954 319.656 5.00694 319.715C5.15497 320.255 5.3289 320.332 5.38811 320.358C6.41692 320.806 10.0844 318.86 15.6355 315.917C17.582 314.885 19.7877 313.716 22.356 312.389C22.7409 312.193 23.2072 312.285 23.4884 312.614C23.766 312.943 23.7808 313.42 23.5217 313.764C23.4958 313.801 20.7647 317.44 18.3074 321.353C13.6889 328.705 14.4697 329.929 14.4771 329.944C14.7399 330.306 14.936 330.373 15.0915 330.388C16.7568 330.554 21.664 326.187 30.1609 318.446C30.3348 318.287 30.5605 318.206 30.7826 318.206V318.202Z" fill="#F0AB88"/>
<path d="M29.828 300.462C26.3567 300.462 20.3912 297.618 16.6423 295.451C16.1982 295.196 16.0502 294.63 16.3055 294.186C16.5609 293.742 17.1271 293.595 17.5712 293.85C26.0015 298.724 30.2943 298.868 30.6903 298.469C30.9457 298.025 31.5082 297.881 31.9523 298.136C32.3963 298.391 32.5407 298.964 32.2853 299.404C31.8523 300.151 30.979 300.462 29.8317 300.462H29.828Z" fill="#F0AB88"/>
<path d="M28.1475 315.891C27.9884 315.891 27.8292 315.85 27.6849 315.765C25.557 314.534 16.9158 306.834 16.8936 301.117C16.8936 300.606 17.3043 300.192 17.815 300.188C18.3257 300.188 18.7402 300.599 18.7402 301.109C18.755 305.499 26.1565 312.744 28.6101 314.164C29.0542 314.419 29.2022 314.985 28.9469 315.429C28.7766 315.724 28.4658 315.891 28.1438 315.891H28.1475Z" fill="#F0AB88"/>
<path d="M143.119 458.285C149.887 464.291 155.96 471.632 160.512 479.443C162.059 479.48 163.632 479.531 165.183 479.491C172.244 479.31 173.942 477.756 181.037 477.963C181.51 477.978 181.988 477.908 182.458 477.989C182.458 477.989 183.953 500.933 184.171 500.359C184.171 500.359 103.321 517.168 99.4945 500.918C95.6679 484.668 111.862 477.29 123.042 470.615C124.659 469.65 125.059 469.487 126.732 469.125L135.891 484.664L148.907 482.127C146.29 477.331 143.526 472.586 140.428 468.086C139.248 466.373 137.69 464.742 136.857 462.864C139.018 461.436 140.913 459.643 143.122 458.289L143.119 458.285Z" fill="#DB5686"/>
<path d="M245.8 458.526C247.332 459.909 250.081 461.887 251.824 463.1C248.009 468.866 243.69 474.454 240.611 480.678C240.345 481.214 239.96 481.721 240.012 482.368L252.783 484.909L262.186 469.121C275.072 475.094 301.825 487.793 289.183 500.914C276.542 514.035 206.949 500.774 206.949 500.774C207.482 493.769 207.704 486.691 208.396 479.702C208.441 479.261 208.574 478.829 208.67 478.403C208.77 478.307 208.981 478.392 209.118 478.374C210.58 478.211 212.778 478.326 214.31 478.363C214.88 478.378 215.409 478.614 215.979 478.625C222.666 478.74 221.467 479.424 228.154 479.428C230.615 475.245 233.532 471.281 236.644 467.564C239.316 464.376 242.365 460.841 245.796 458.526H245.8Z" fill="#DB5686"/>
<path d="M144.565 273.062C143.814 274.283 142.434 275.706 141.916 276.675L139.04 247.397C136.513 245.559 136.542 248.414 136.616 250.3C136.905 257.408 137.937 265.167 138.541 272.341C135.169 274.745 131.765 277.13 128.419 279.567L105.763 230.914C118.268 222.035 132.571 211.942 146.257 205.141C147.115 208.13 147.77 211.195 148.351 214.25C151.582 231.254 153.925 257.848 144.569 273.066L144.565 273.062Z" fill="#F9A7C5"/>
<path d="M273.695 233.507L252.786 279.327C250.003 277.903 247.135 276.62 244.437 275.026L242.905 274.508C242.816 274.438 242.735 274.357 242.665 274.268L240.848 248.987C239.793 247.992 238.39 248.61 238.368 250.056L239.771 270.655C239.267 269.915 238.772 269.283 238.324 268.488C231.618 256.509 232.414 239.113 233.505 225.737C234.027 219.328 235.093 212.956 235.915 206.588C250.137 213.418 260.821 224.461 273.695 233.51V233.507Z" fill="#F9A7C5"/>
<path d="M211.09 193.097C211.168 194.04 211.272 195.108 211.331 195.989C211.386 196.787 211.538 197.712 211.571 198.396C212.171 210.341 198.808 219.439 187.82 219.121C177.406 218.817 164.89 209.047 166.5 197.915C166.841 195.563 167.522 193.267 167.947 190.929C168.45 189.89 168.45 190.933 169.02 191.425C171.615 193.666 174.379 195.574 177.595 196.828C188.346 201.018 203.615 200.094 210.735 189.968C211.009 190.778 210.783 191.68 210.846 192.516C210.868 192.83 211.094 193.056 211.098 193.1L211.09 193.097Z" fill="#F6CCB6"/>
<path d="M128.416 279.564C127.076 280.536 118.361 287.278 117.698 287.278C116.481 284.963 115.578 282.489 114.512 280.1C114.334 279.704 113.972 279.83 113.953 279.804C113.872 279.686 113.313 277.881 112.987 277.156C108.443 266.949 104.006 256.579 99.4906 246.324C98.8874 244.952 98.1584 243.603 97.5625 242.231C97.3072 241.646 95.7677 238.166 95.9046 237.93C99.2797 235.725 102.47 233.24 105.756 230.91L128.412 279.564H128.416Z" fill="#FFDAE8"/>
<path d="M273.696 233.507C274.143 233.821 274.898 234.109 275.457 234.516C277.944 236.31 280.313 238.277 282.807 240.056C283.047 240.467 282.348 241.879 282.13 242.419C281.811 243.203 281.486 244.08 281.164 244.827C276.564 255.588 273.862 262.441 268.933 273.062C268.555 273.872 268.104 274.66 267.726 275.47C266.29 278.561 264.873 281.686 263.626 284.863C259.966 283.114 256.395 281.169 252.783 279.323L273.692 233.503L273.696 233.507Z" fill="#FFDAE8"/>
<path d="M211.571 198.396C213.296 198.518 214.946 199.04 216.634 199.361C215.746 204.664 214.613 209.957 213.74 215.26C209.243 220.866 204.011 225.241 196.994 227.308C185.755 230.618 174.878 226.939 166.981 218.632C165.39 212.053 163.513 205.522 162.159 198.881C161.863 198.81 161.645 199.062 161.437 199.121L161.197 198.881C161.237 198.881 161.471 198.659 161.778 198.629C163.358 198.477 164.946 198.596 166.496 197.915C164.886 209.047 177.402 218.817 187.816 219.121C198.807 219.442 212.171 210.345 211.568 198.396H211.571Z" fill="#FFDAE8"/>
<path d="M136.853 462.86C137.686 464.739 139.244 466.37 140.424 468.082C143.526 472.582 146.286 477.331 148.903 482.124L135.887 484.661L126.728 469.121C127.309 468.995 135.647 463.655 136.85 462.86H136.853Z" fill="#F4E39F"/>
<path d="M262.186 469.125L252.783 484.912L240.012 482.372C239.96 481.728 240.345 481.222 240.611 480.682C243.69 474.458 248.005 468.866 251.824 463.104C255.029 465.334 258.704 467.512 262.19 469.125H262.186Z" fill="#F4E39F"/>
<path d="M141.912 276.675C141.827 276.834 141.749 276.993 141.672 277.156C140.965 277.829 139.884 278.624 139.262 279.323C138.97 277.012 138.737 274.66 138.541 272.337C137.934 265.163 136.901 257.404 136.616 250.296C136.539 248.41 136.513 245.555 139.04 247.393L141.916 276.672L141.912 276.675Z" fill="#E787AA"/>
<path d="M213.74 215.256C212.796 220.981 211.956 226.768 211.123 232.512C210.986 233.451 246.325 322.555 245.944 322.658L132.468 400.66C130.41 392.857 168.883 226.473 166.985 218.629C174.882 226.935 185.759 230.615 196.998 227.305C204.014 225.237 209.251 220.862 213.744 215.256H213.74Z" fill="#F9A7C5"/>
<path d="M219.217 241.08C226.281 239.649 228.572 248.821 223.062 251.428C217.877 253.883 212.999 248.144 216.19 243.355C216.756 242.504 218.214 241.284 219.217 241.08Z" fill="#EABCC9"/>
<path d="M160.168 243.251C167.025 242.086 169.438 251.051 163.698 253.525C158.551 255.744 153.669 249.997 156.996 245.381C157.696 244.412 158.969 243.455 160.168 243.251Z" fill="#EABCC9"/>
<path d="M162.707 49.8107C162.707 49.8107 166.988 55.5688 169.664 72.2513C186.658 69.4222 208.814 71.8556 208.814 71.8556L215.938 52.6361L221.234 73.4939C221.234 73.4939 241.059 74.9842 247.757 88.3494L248.486 110.302C258.785 105.601 271.431 110.864 275.368 121.404C280.923 136.267 268.011 151.019 252.597 148.238C246.184 163.522 235.593 177.217 220.634 184.517C183.719 202.534 179.241 195.556 159.091 186.236C141.272 177.993 127.216 162.853 120.563 144.34C118.938 144.388 117.521 145.268 115.848 145.601C105.538 147.657 95.2458 141.17 92.9587 130.867C89.4653 115.117 104.846 102.488 119.545 108.59L128.386 81.6113C128.601 81.138 138.067 74.84 163.702 73.2017C163.702 73.2017 161.508 50.5208 162.707 49.8181V49.8107ZM114.734 121.637C112.576 121.112 105.771 124.451 105.76 126.622C105.756 127.524 106.707 128.515 107.628 128.434C109.69 128.26 111.414 124.869 115.615 125.398C118.142 125.716 116.984 131.019 116.436 132.787C115.966 134.307 113.383 138.001 113.383 138.645C113.379 139.817 114.475 140.638 115.596 140.571C117.65 140.446 119.734 135.634 120.248 133.848C123.053 124.103 117.521 112.842 106.311 114.078C103.931 114.34 98.0399 116.892 98.2027 119.751C98.4358 123.811 103.706 118.97 105.204 118.471C108.698 117.306 112.958 118.271 114.738 121.637H114.734ZM255.014 125.072C257.079 121.988 261.068 121.034 264.577 121.877C266.742 122.399 270.043 126.326 271.538 123.896C272.752 121.918 270.461 120.394 269.007 119.514C259.344 113.66 248.493 121.248 249.178 132.117C249.382 135.372 251.169 140.69 254.466 141.918C258.289 140.59 255.366 138.327 254.378 136.193C253.215 133.685 253.145 131.596 253.293 128.856C254.722 128.719 255.928 128.967 257.205 129.588C258.841 130.387 261.061 134.026 262.93 132.128C265.58 129.44 257.475 124.695 255.014 125.072ZM144.928 133.756C128.871 134.699 130.018 159.366 146.201 158.763C162.544 158.156 161.607 132.776 144.928 133.756ZM226.396 138.219C211.06 140.32 212.766 164.95 230.397 162.831C245.366 161.033 243.412 135.889 226.396 138.219Z" fill="#F7CCB6"/>
<path d="M211.09 193.097C211.09 193.056 210.861 192.827 210.838 192.512C210.779 191.676 211.001 190.778 210.727 189.964C203.607 200.09 188.338 201.014 177.587 196.824C174.375 195.571 171.611 193.662 169.013 191.421C168.446 190.933 168.443 189.887 167.939 190.926C167.999 190.593 168.191 190.29 167.939 189.96C182.065 196.495 197.342 196.21 211.083 188.755V193.089L211.09 193.097Z" fill="#E1A585"/>
<path d="M242.665 274.268C242.454 273.998 241.677 273.576 241.458 273.303C240.892 272.596 240.289 271.409 239.771 270.655L238.368 250.056C238.39 248.61 239.797 247.992 240.848 248.987L242.665 274.268Z" fill="#E787AA"/>
<path d="M144.928 133.756C161.611 132.776 162.548 158.156 146.201 158.763C130.018 159.362 128.871 134.699 144.928 133.756Z" fill="#F9A299"/>
<path d="M226.396 138.219C243.412 135.889 245.366 161.033 230.397 162.831C212.77 164.95 211.06 140.32 226.396 138.219Z" fill="#F9A299"/>
<path d="M156.952 108.331C144.802 109.44 146.405 128.286 159.22 126.755C170.585 125.398 169.183 107.218 156.952 108.331Z" fill="#F8E9E3"/>
<path d="M219.724 124.266C227.965 132.942 241.851 120.239 233.024 111.145C224.787 102.654 211.171 115.261 219.724 124.266Z" fill="#F8E9E3"/>
<path d="M236.792 103.187L212.2 97.2546C211.749 97.1067 211.656 97.5246 211.682 96.7369C211.764 94.4218 214.273 90.5314 215.994 89.0077C224.465 81.5115 236.599 92.6911 236.788 103.187H236.792Z" fill="#372715"/>
<path d="M166.652 94.836L141.531 104.163C140.746 88.1941 161.408 80.5278 166.652 94.836Z" fill="#372715"/>
<path d="M114.734 121.637C112.954 118.271 108.694 117.306 105.201 118.471C103.702 118.97 98.4323 123.815 98.1991 119.751C98.0363 116.892 103.928 114.34 106.307 114.078C117.517 112.839 123.05 124.103 120.244 133.848C119.73 135.634 117.646 140.446 115.593 140.571C114.471 140.642 113.376 139.817 113.38 138.645C113.38 138.001 115.963 134.307 116.433 132.787C116.98 131.019 118.139 125.72 115.611 125.398C111.414 124.869 109.686 128.256 107.625 128.434C106.703 128.512 105.752 127.524 105.756 126.622C105.767 124.451 112.573 121.112 114.73 121.637H114.734Z" fill="#E1A585"/>
<path d="M255.014 125.072C257.475 124.691 265.576 129.436 262.93 132.128C261.061 134.026 258.841 130.387 257.205 129.588C255.928 128.966 254.722 128.719 253.293 128.856C253.145 131.596 253.215 133.689 254.377 136.193C255.366 138.327 258.289 140.59 254.466 141.917C251.169 140.69 249.382 135.368 249.178 132.117C248.497 121.245 259.344 113.66 269.007 119.514C270.465 120.398 272.755 121.921 271.538 123.896C270.046 126.326 266.742 122.395 264.577 121.877C261.068 121.034 257.079 121.992 255.014 125.072Z" fill="#E1A585"/>
<path d="M182.639 161.152C182.413 161.229 181.436 161.492 181.436 161.492C181.614 150.309 198.674 147.931 202.02 158.881C202.168 159.369 203.011 161.54 202.319 161.54C196.191 158.944 187.846 159.362 182.635 161.152H182.639Z" fill="#904741"/>
<path d="M156.952 105.494C169.183 104.033 170.586 127.805 159.221 129.584C146.401 131.589 144.803 106.944 156.952 105.494ZM155.202 114.037C153.496 111.271 149.443 114.44 151.157 118.205C152.878 121.981 157.463 117.702 155.202 114.037Z" fill="#78462C"/>
<path d="M219.724 126.019C211.175 114.595 224.786 98.597 233.024 109.37C241.847 120.908 227.962 137.029 219.724 126.019ZM230.171 112.735C227.192 113.501 227.803 120.05 231.381 119.122C234.505 118.312 233.683 111.837 230.171 112.735Z" fill="#78462C"/>
<path d="M155.202 114.869C157.463 117.672 152.878 120.945 151.157 118.057C149.44 115.176 153.496 112.754 155.202 114.869Z" fill="#FCFCFB"/>
<path d="M230.171 113.797C233.683 113.087 234.505 118.19 231.381 118.83C227.799 119.562 227.192 114.399 230.171 113.797Z" fill="#FCFCFB"/>
<path d="M117.595 72.6507C117.595 72.6507 120.03 11.2831 181.44 11.2831C242.85 11.2831 249.149 65.798 249.149 65.798C249.149 65.798 234.586 30.6468 184.571 30.6468C134.555 30.6468 117.598 72.6507 117.598 72.6507H117.595Z" fill="#FF8CB6"/>
<path d="M189.655 241.628C185.721 241.58 185.196 243.377 185.196 246.853C185.196 249.324 184.789 251.739 184.911 254.216C185.014 256.298 184.685 258.003 184.511 260.019C184.337 262.034 184.7 264.068 184.219 265.947C183.989 263.251 183.168 260.592 181.998 258.181C180.725 255.566 180.907 252.526 180.092 249.771C179.415 247.478 179.13 245.437 177.047 244.098C175.496 243.1 173.883 242.438 172.121 242.197C172.432 243.758 173.716 245.718 174.456 247.197C175.874 250.026 177.31 252.833 178.616 255.718C180.133 259.065 181.799 262.504 182.938 265.988C183.63 268.096 184.2 269.416 186.065 270.673C189.844 264.612 187.568 256.195 188.253 249.538C188.526 246.894 189.37 244.549 189.648 241.624L189.655 241.628Z" fill="#A59951"/>
<path d="M209.351 271.908C208.696 275.126 209.181 278.036 210.661 280.973C211.342 282.319 212.371 283.572 212.841 285.004C213.385 286.66 212.974 287.999 212.9 289.674C212.818 291.442 212.852 293.232 212.796 294.996C212.737 296.96 213.64 298.469 214.587 300.174C216.671 303.916 220.294 306.594 223.255 309.589C226.693 313.065 228.41 317.451 231.256 321.283C229.82 321.394 228.536 320.484 227.318 319.748C225.142 318.431 223.713 316.372 221.993 314.515C218.122 310.34 214.258 306.024 210.983 301.35C209.395 299.086 209.218 296.845 208.518 294.253C208.093 292.688 207.19 291.039 207.356 289.379C207.534 287.618 208.633 286.379 208.455 284.523C208.255 282.415 207.674 280.544 207.678 278.388C207.678 277.245 207.449 275.743 207.782 274.634C208.056 273.717 208.836 273.173 209.351 271.912V271.908Z" fill="#A59951"/>
<path d="M166.578 335.528C165.612 336.419 164.191 337.081 163.095 337.877C161.574 338.986 160.449 340.458 159.28 341.922C158.754 342.581 158.096 343.317 157.722 344.071C157.096 345.336 157.637 345.136 158.758 345.132C159.491 345.132 160.002 344.936 160.416 345.491C160.83 346.046 160.035 347.222 160.124 347.828C160.335 349.296 156.641 351.896 154.591 353.827C153.736 354.633 153.033 355.546 152.237 356.404C151.516 357.185 150.398 357.861 149.821 358.753C148.918 360.147 145.709 362.462 146.971 362.506C149.58 362.591 158.096 357.425 157.381 361.512C157.163 362.75 156.393 366.412 155.786 367.492C154.595 369.603 153.581 371.789 152.422 373.912C150.713 377.04 147.286 380.746 145.054 383.545C144.806 377.728 151.205 373.201 151.904 367.547C152.123 365.794 151.205 365.084 149.562 364.581C148.34 364.208 145.051 364.281 144.447 362.898C144.055 362 145.058 359.873 145.321 359.045C145.905 357.199 146.62 355.221 147.552 353.52C148.144 352.44 148.751 351.774 148.988 350.595C149.243 349.333 149.218 348.035 149.436 346.767C150.294 341.726 153.473 336.031 158.821 334.84C160.564 334.452 162.973 333.742 164.587 334.8C165.534 335.421 166.985 335.151 166.57 335.532L166.578 335.528Z" fill="#A59951"/>
<path d="M231.226 375.668C229.468 380.746 231.633 386.153 229.96 391.201C228.806 394.684 229.142 396.966 228.961 400.661C228.898 401.944 228.054 404.436 226.715 404.802C225.375 405.169 224.92 404.817 224.295 403.944C221.116 399.521 220.538 391.94 221.978 386.803C222.711 384.189 223.95 381.607 225.02 379.111C225.427 378.161 225.723 376.896 226.341 376.053C227.485 374.496 229.934 374.03 231.785 373.76C232.358 373.675 233.05 373.427 233.565 373.704C234.823 374.374 236.366 377.466 237.029 378.749C240.537 385.55 242.084 393.689 242.787 401.26C242.939 402.898 241.658 404.788 241.658 404.788C241.658 404.788 237.935 399.666 237.184 397.709C236.118 394.928 236.152 392.325 235.23 389.507C233.994 385.735 231.359 381.711 230.39 377.902" fill="#A59951"/>
<path d="M262.43 404.237C262.33 403.63 262.297 402.946 262.19 402.31C261.96 401.851 249.237 312.174 242.909 274.505C242.82 274.434 242.739 274.353 242.668 274.264C242.458 273.994 241.68 273.573 241.462 273.299C240.896 272.593 240.293 271.405 239.774 270.651C239.271 269.911 238.775 269.279 238.327 268.484C231.622 256.506 232.417 239.109 233.509 225.733C234.031 219.324 235.097 212.952 235.918 206.584C229.512 203.507 223.628 200.682 216.637 199.358C215.749 204.661 214.617 209.953 213.743 215.256C212.8 220.981 211.96 226.768 211.127 232.512C210.99 233.451 210.361 240.219 209.98 240.319C205.15 240.563 200.321 240.803 195.488 241.047C191.532 241.247 188.66 240.241 187.046 243.865C185.807 246.657 186.743 250.855 186.251 253.869C185.377 259.257 185.677 264.597 185.207 270.041C183.594 265.684 181.158 261.38 180.263 256.75C179.693 253.791 179.427 250.559 178.131 247.796C176.81 244.975 174.297 244.02 172.695 241.742C168.865 236.299 168.55 225.119 166.977 218.621C165.386 212.042 163.51 205.511 162.155 198.869C161.859 198.799 161.641 199.051 161.434 199.11C156.282 200.611 150.983 202.778 146.249 205.13C147.108 208.119 147.763 211.184 148.344 214.239C151.575 231.243 153.917 257.837 144.562 273.055C143.811 274.275 142.43 275.699 141.912 276.668C141.827 276.827 141.749 276.986 141.672 277.149C140.965 277.822 139.884 278.617 139.262 279.316C138.985 279.63 138.748 280.004 138.437 280.3C131.55 316.457 124.855 366.345 118.183 402.558C118.116 402.92 118.405 403.253 118.771 403.238L118.531 403.245C118.246 403.257 118.013 403.471 117.979 403.752C117.92 404.248 117.891 404.754 117.809 405.191C117.78 406.034 117.661 405.856 118.401 405.916C122.387 406.23 127.357 405.971 131.439 405.927C167.921 405.52 190.222 405.217 226.715 404.791L227.447 402.458C228.317 399.067 226.426 398.053 227.629 394.47C228.521 391.814 229.416 389.259 229.683 386.474C230.03 382.824 229.442 379.241 230.722 375.683C232.606 379.315 239.56 398.345 240.999 402.214L241.662 404.769C242.953 405.335 245.921 404.714 247.357 404.699C252.087 404.643 256.883 404.895 261.598 404.71C262.064 404.691 262.564 404.958 262.43 404.229V404.237ZM157 245.381C157.7 244.413 158.973 243.455 160.172 243.251C167.029 242.086 169.442 251.051 163.702 253.525C158.554 255.744 153.673 249.997 157 245.381ZM176.71 353.409C174.827 355.295 165.168 367.173 162.906 368.568C161.234 372.503 149.869 381.966 145.387 381.341C146.075 379.84 155.949 365.236 155.279 360.18C153.599 360.572 145.731 361.567 144.084 362.214C145.931 356.741 155.597 351.441 157.785 345.979C157.063 345.831 151.608 346.674 150.901 346.512C152.981 344.799 161.234 335.743 164.006 336.46C167.203 337.288 172.195 337.359 174.678 339.803C173.613 341.686 171.844 344.836 170.604 346.534C172.699 348.953 179.904 350.21 176.71 353.409ZM216.19 243.355C216.756 242.504 218.214 241.284 219.217 241.08C226.282 239.649 228.572 248.821 223.062 251.428C217.877 253.884 213 248.144 216.19 243.355ZM229.512 320.177C226.27 319.326 223.377 313.543 221.604 310.88C220.016 308.494 218.395 306.364 216.415 304.275C215.035 302.818 212.241 301.024 211.257 299.327C210.365 297.785 210.465 294.893 210.054 292.995C209.451 290.196 210.838 288.913 211.049 286.405C211.308 283.336 208.133 280.991 207.667 278.195C207.375 276.439 208.466 274.734 208.518 273.036C209.388 274.789 210.553 274.726 210.398 277.005C212.045 277.885 214.291 278.898 215.501 280.314C216.852 281.894 216.356 281.146 216.101 283.092C215.82 285.218 216.13 285.37 218.003 287.223C220.838 290.029 223.917 292.892 226.115 296.22C219.024 297.947 224.468 303.583 226.189 307.903C227.033 310.026 227.488 312.307 228.391 314.415C229.005 315.846 230.319 317.348 230.693 318.857C231.118 320.569 231.296 320.65 229.509 320.181L229.512 320.177Z" fill="#FFEF60"/>
<path d="M195.177 135.675C195.036 135.675 194.899 135.675 194.759 135.675C191.258 135.653 187.85 135.35 187.705 135.335C186.836 135.257 186.192 134.484 186.273 133.615C186.351 132.746 187.124 132.103 187.994 132.184C193.371 132.672 198.685 132.609 200.266 132.073C199.747 129.144 194.374 117.765 191.717 112.132C190.233 108.989 188.952 106.271 188.327 104.777C187.99 103.971 188.371 103.042 189.178 102.706C189.985 102.369 190.914 102.75 191.251 103.556C191.846 104.988 193.116 107.672 194.581 110.783C200.787 123.933 203.7 130.59 203.452 132.839C203.197 135.165 199.977 135.675 195.177 135.675Z" fill="#E1A585"/>
</g>
<defs>
<clipPath id="clip0_255_249">
<rect width="379" height="508" fill="white"/>
</clipPath>
</defs>
</svg>
