<svg width="49" height="81" viewBox="0 0 49 81" fill="none" xmlns="http://www.w3.org/2000/svg">
<path d="M29.6962 42.31C26.4962 32.24 22.5162 19.7 19.9462 14.91C17.6962 10.72 15.5562 6.2 13.2062 0.690002C13.0462 0.320002 12.6862 0.0800018 12.2862 0.0800018C12.2462 0.0800018 12.1962 0.0800018 12.1562 0.0800018C11.7162 0.140002 11.3562 0.48 11.2962 0.93C11.0362 2.73 11.0362 4.56 11.0362 6.34C11.0362 7.72 11.0362 9.15 10.9162 10.5C10.0862 19.39 9.13615 27.22 7.99615 34.45C7.42615 38.06 7.24615 41.28 7.06615 44.4C6.84615 48.26 6.64615 51.91 5.74615 56.16C5.35615 58.02 5.21615 60.52 5.06615 63.16C4.73615 69.1 4.32615 76.49 0.766151 79.21C0.426151 79.47 0.286155 79.92 0.426155 80.32C0.566155 80.75 0.986157 81 1.43616 81C4.82616 81 7.64616 80.73 10.3662 80.47C13.0562 80.21 15.8462 79.95 19.1962 79.95C21.4462 79.95 24.3862 79.72 27.2362 79.49C30.1162 79.26 33.1262 79.05 35.3262 79.03C36.6062 79.03 37.7462 78.97 38.8562 78.91C41.9762 78.74 44.4462 78.61 47.5462 80.2C47.9462 80.4 48.4262 80.32 48.7362 79.99C49.0362 79.66 49.0862 79.17 48.8562 78.79C48.0162 77.41 46.3562 74.97 44.4262 72.14C40.6962 66.66 35.5962 59.15 34.3262 56.15C33.3762 53.88 31.6662 48.51 29.6862 42.29L29.6962 42.31Z" fill="#F7CCB6"/>
</svg>
