<svg width="93" height="125" viewBox="0 0 93 125" fill="none" xmlns="http://www.w3.org/2000/svg">
<path d="M82.1099 33.3754C79.0399 31.7554 75.8799 30.0954 73.9699 28.2354C77.1499 23.7054 81.3399 16.3054 84.1499 11.3254L84.5499 10.6053C84.7699 10.2153 84.6999 9.71536 84.3799 9.39536C78.7199 3.81536 67.7899 2.12536 59.7999 0.885356C58.0299 0.615356 56.3699 0.355353 55.0299 0.0853532C49.1699 -1.09465 36.9299 10.1554 24.8999 21.7554C22.1899 24.3654 20.0599 26.4254 18.7899 27.4654C18.4999 27.7054 18.3599 28.0954 18.4499 28.4654C18.5399 28.8354 18.8299 29.1254 19.1999 29.2154C20.2799 29.4654 23.6299 29.1054 29.0099 28.5154C31.6299 28.2254 34.7199 27.8754 36.4999 27.7854C33.2999 34.3654 26.0499 41.0453 19.0199 47.5253C10.9899 54.9253 2.67993 62.5854 0.0499344 70.3954C-0.0700656 70.7654 0.0299327 71.1753 0.309933 71.4353C0.589933 71.7053 0.999934 71.7854 1.36993 71.6454C4.07993 70.5754 13.6599 69.0854 21.3499 67.8954C25.0499 67.3154 28.3299 66.8054 30.3399 66.4254C30.5699 77.7454 14.3399 104.275 7.27993 115.815C5.30993 119.035 4.00994 121.165 3.60994 122.025C3.49994 122.275 3.48994 122.555 3.58994 122.805C3.68994 123.055 3.88993 123.255 4.13993 123.365C5.77993 124.045 7.51994 124.365 9.35994 124.365C31.8199 124.365 67.8099 76.6154 83.8799 55.3054C86.8999 51.2954 89.0899 48.3954 89.8699 47.6154C91.7699 45.7054 92.5599 43.8954 92.2799 42.0754C91.7299 38.4454 87.0499 35.9854 82.0999 33.3754H82.1099Z" fill="#F9A7C5"/>
</svg>
