<svg width="94" height="126" viewBox="0 0 94 126" fill="none" xmlns="http://www.w3.org/2000/svg">
<path d="M82.9 34.28C79.83 32.66 76.67 31 74.76 29.14C77.94 24.61 82.13 17.21 84.94 12.23L85.34 11.51C85.56 11.12 85.49 10.62 85.17 10.3C79.51 4.72001 68.58 3.03 60.59 1.79C58.82 1.52 57.16 1.26 55.82 0.990001C49.96 -0.189999 37.72 11.06 25.69 22.66C22.98 25.27 20.85 27.33 19.58 28.37C19.29 28.61 19.15 29 19.24 29.37C19.33 29.74 19.62 30.03 19.99 30.12C21.07 30.37 24.42 30.01 29.8 29.42C32.42 29.13 35.51 28.78 37.29 28.69C34.09 35.27 26.84 41.95 19.81 48.43C11.78 55.83 3.46997 63.49 0.839973 71.3C0.719973 71.67 0.819972 72.08 1.09997 72.34C1.37997 72.61 1.78997 72.69 2.15997 72.55C4.86997 71.48 14.45 69.99 22.14 68.8C25.84 68.22 29.12 67.71 31.13 67.33C31.36 78.65 15.13 105.18 8.06997 116.72C6.09997 119.94 4.79997 122.07 4.39997 122.93C4.28997 123.18 4.27997 123.46 4.37997 123.71C4.47997 123.96 4.67997 124.16 4.92997 124.27C6.56997 124.95 8.30997 125.27 10.15 125.27C32.61 125.27 68.6 77.52 84.67 56.21C87.69 52.2 89.88 49.3 90.66 48.52C92.56 46.61 93.35 44.8 93.07 42.98C92.52 39.35 87.84 36.89 82.89 34.28H82.9Z" fill="#FFEF60"/>
</svg>
