<svg width="66" height="131" viewBox="0 0 66 131" fill="none" xmlns="http://www.w3.org/2000/svg">
<path d="M64.8989 125.725L64.6289 124.645C63.9889 122.085 62.4589 119.605 60.9789 117.195C59.9689 115.545 59.0089 113.995 58.3589 112.475C57.0789 109.495 56.1189 106.295 55.1889 103.205C54.3589 100.455 53.5089 97.6147 52.4189 94.8947C51.3489 92.2147 49.9389 89.6747 48.5789 87.2247C43.9089 78.8147 40.2189 72.1647 51.8389 64.5147C52.0589 64.3647 52.2189 64.1447 52.2689 63.8847C52.3189 63.6247 52.2689 63.3547 52.1289 63.1347C46.8789 55.1747 39.8089 48.2247 32.9789 41.5047C32.0089 40.5447 31.0389 39.5947 30.0789 38.6447L29.1989 37.7747C25.0189 33.6447 24.5789 33.2147 25.2289 28.3047C25.4189 26.8947 25.6489 26.0447 25.8089 25.4247C26.3389 23.4647 26.0389 23.1247 24.0889 20.8547L23.3789 20.0247C22.1889 18.6347 19.8089 16.3847 17.0489 13.7847C12.1689 9.18467 6.08889 3.46467 4.64889 0.554666C4.46889 0.184666 4.07888 -0.0353333 3.65888 0.00466673C3.24888 0.0446667 2.89889 0.334664 2.78889 0.724664C2.47889 1.81466 2.11889 2.90466 1.76889 3.95466C0.498885 7.78466 -0.701114 11.4047 0.488886 15.2447C1.38889 18.1647 3.0989 20.9647 4.7489 23.6747C7.3289 27.8947 9.98888 32.2647 9.57888 37.0747C9.44888 38.5847 9.17889 40.8147 8.86889 43.4047C7.42889 55.2947 6.29889 66.2347 8.17889 69.4847C10.0589 72.7347 15.0289 77.3547 19.4089 81.4247C21.3389 83.2247 23.1689 84.9247 24.3389 86.1647C29.2289 91.3347 33.6489 96.9647 38.2589 103.895C39.1489 105.235 40.1689 106.915 41.2589 108.685C46.0889 116.615 52.7089 127.465 60.2089 129.445C61.7889 129.865 62.8689 130.145 63.6489 130.145C64.1989 130.145 64.6089 130.005 64.9489 129.665C65.7189 128.905 65.4389 127.845 64.8989 125.735V125.725Z" fill="#F9A7C5"/>
</svg>
