<svg width="50" height="82" viewBox="0 0 50 82" fill="none" xmlns="http://www.w3.org/2000/svg">
<path d="M19.7999 39.15C22.9999 49.22 26.9799 61.76 29.5499 66.55C31.7999 70.74 33.9399 75.26 36.2899 80.77C36.4499 81.14 36.8099 81.38 37.2099 81.38C37.2499 81.38 37.2999 81.38 37.3399 81.38C37.7799 81.32 38.1399 80.98 38.1999 80.53C38.4599 78.73 38.4599 76.9 38.4599 75.12C38.4599 73.74 38.4599 72.31 38.5799 70.96C39.4099 62.07 40.3599 54.24 41.4999 47.01C42.0699 43.4 42.2499 40.18 42.4299 37.06C42.6499 33.2 42.8499 29.55 43.7499 25.3C44.1399 23.44 44.2799 20.94 44.4299 18.3C44.7599 12.36 45.1699 4.96999 48.7299 2.24999C49.0699 1.98999 49.2099 1.53999 49.0699 1.13999C48.9299 0.709992 48.5099 0.459991 48.0599 0.459991C44.6699 0.459991 41.8499 0.729992 39.1299 0.989992C36.4399 1.24999 33.6499 1.50999 30.2999 1.50999C28.0499 1.50999 25.1099 1.73999 22.2599 1.96999C19.3799 2.19999 16.3699 2.40999 14.1699 2.42999C12.8899 2.42999 11.7499 2.48999 10.6399 2.54999C7.51994 2.71999 5.04994 2.84999 1.94994 1.25999C1.54994 1.05999 1.06994 1.13999 0.759941 1.46999C0.459941 1.79999 0.40994 2.28999 0.63994 2.66999C1.47994 4.04999 3.13994 6.48999 5.06994 9.31999C8.79994 14.8 13.8999 22.31 15.1699 25.31C16.1199 27.58 17.8299 32.95 19.8099 39.17L19.7999 39.15Z" fill="#FFEF60"/>
</svg>
