<svg width="66" height="131" viewBox="0 0 66 131" fill="none" xmlns="http://www.w3.org/2000/svg">
<path d="M65.4702 125.96L65.2002 124.88C64.5602 122.32 63.0302 119.84 61.5502 117.43C60.5402 115.78 59.5802 114.23 58.9302 112.71C57.6502 109.73 56.6902 106.53 55.7602 103.44C54.9302 100.69 54.0802 97.85 52.9902 95.13C51.9202 92.45 50.5102 89.91 49.1502 87.46C44.4802 79.05 40.7902 72.4 52.4102 64.75C52.6302 64.6 52.7902 64.38 52.8402 64.12C52.8902 63.86 52.8402 63.59 52.7002 63.37C47.4502 55.41 40.3802 48.46 33.5502 41.74C32.5802 40.78 31.6102 39.83 30.6502 38.88L29.7702 38.01C25.5902 33.88 25.1502 33.45 25.8002 28.54C25.9902 27.13 26.2202 26.28 26.3802 25.66C26.9102 23.7 26.6102 23.36 24.6602 21.09L23.9502 20.26C22.7602 18.87 20.3802 16.62 17.6202 14.02C12.7402 9.42002 6.66018 3.70002 5.22018 0.790018C5.04018 0.420018 4.65017 0.200018 4.23017 0.240018C3.82017 0.280018 3.47018 0.570016 3.36018 0.960016C3.05018 2.05002 2.69017 3.14002 2.34017 4.19002C1.07017 8.02002 -0.129825 11.64 1.06018 15.48C1.96018 18.4 3.67019 21.2 5.32019 23.91C7.90019 28.13 10.5602 32.5 10.1502 37.31C10.0202 38.82 9.75018 41.05 9.44018 43.64C8.00018 55.53 6.87018 66.47 8.75018 69.72C10.6302 72.97 15.6002 77.59 19.9802 81.66C21.9102 83.46 23.7402 85.16 24.9102 86.4C29.8002 91.57 34.2202 97.2 38.8302 104.13C39.7202 105.47 40.7402 107.15 41.8302 108.92C46.6602 116.85 53.2802 127.7 60.7802 129.68C62.3602 130.1 63.4402 130.38 64.2202 130.38C64.7702 130.38 65.1802 130.24 65.5202 129.9C66.2902 129.14 66.0102 128.08 65.4702 125.97V125.96Z" fill="#FFEF60"/>
</svg>
