<svg width="49" height="81" viewBox="0 0 49 81" fill="none" xmlns="http://www.w3.org/2000/svg">
<path d="M19.3038 38.69C22.5038 48.76 26.4838 61.3 29.0538 66.09C31.3038 70.28 33.4438 74.8 35.7938 80.31C35.9538 80.68 36.3138 80.92 36.7138 80.92C36.7538 80.92 36.8038 80.92 36.8438 80.92C37.2838 80.86 37.6438 80.52 37.7038 80.07C37.9638 78.27 37.9638 76.44 37.9638 74.66C37.9638 73.28 37.9638 71.85 38.0838 70.5C38.9138 61.61 39.8638 53.78 41.0038 46.55C41.5738 42.94 41.7538 39.72 41.9338 36.6C42.1538 32.74 42.3538 29.09 43.2538 24.84C43.6438 22.98 43.7838 20.48 43.9338 17.84C44.2638 11.9 44.6738 4.51 48.2338 1.79C48.5738 1.53 48.7138 1.08 48.5738 0.68C48.4338 0.25 48.0138 0 47.5638 0C44.1738 0 41.3538 0.270001 38.6338 0.530001C35.9438 0.790001 33.1538 1.05 29.8038 1.05C27.5538 1.05 24.6138 1.28 21.7638 1.51C18.8838 1.74 15.8738 1.95 13.6738 1.97C12.3938 1.97 11.2538 2.03 10.1438 2.09C7.02385 2.26 4.55385 2.39 1.45385 0.800001C1.05385 0.600001 0.573847 0.68 0.263847 1.01C-0.0361528 1.34 -0.0861537 1.83 0.143846 2.21C0.983846 3.59 2.64385 6.03 4.57385 8.86C8.30385 14.34 13.4038 21.85 14.6738 24.85C15.6238 27.12 17.3338 32.49 19.3138 38.71L19.3038 38.69Z" fill="#F9A7C5"/>
</svg>
