<svg width="40" height="40" viewBox="0 0 40 40" fill="none" xmlns="http://www.w3.org/2000/svg">
<path d="M32.5 4.375H29.375V3.75C29.375 3.25272 29.1775 2.77581 28.8258 2.42417C28.4742 2.07254 27.9973 1.875 27.5 1.875C27.0027 1.875 26.5258 2.07254 26.1742 2.42417C25.8225 2.77581 25.625 3.25272 25.625 3.75V4.375H14.375V3.75C14.375 3.25272 14.1775 2.77581 13.8258 2.42417C13.4742 2.07254 12.9973 1.875 12.5 1.875C12.0027 1.875 11.5258 2.07254 11.1742 2.42417C10.8225 2.77581 10.625 3.25272 10.625 3.75V4.375H7.5C6.6712 4.375 5.87634 4.70424 5.29029 5.29029C4.70424 5.87634 4.375 6.6712 4.375 7.5V32.5C4.375 33.3288 4.70424 34.1237 5.29029 34.7097C5.87634 35.2958 6.6712 35.625 7.5 35.625H32.5C33.3288 35.625 34.1237 35.2958 34.7097 34.7097C35.2958 34.1237 35.625 33.3288 35.625 32.5V7.5C35.625 6.6712 35.2958 5.87634 34.7097 5.29029C34.1237 4.70424 33.3288 4.375 32.5 4.375ZM10.625 8.125C10.625 8.62228 10.8225 9.09919 11.1742 9.45083C11.5258 9.80246 12.0027 10 12.5 10C12.9973 10 13.4742 9.80246 13.8258 9.45083C14.1775 9.09919 14.375 8.62228 14.375 8.125H25.625C25.625 8.62228 25.8225 9.09919 26.1742 9.45083C26.5258 9.80246 27.0027 10 27.5 10C27.9973 10 28.4742 9.80246 28.8258 9.45083C29.1775 9.09919 29.375 8.62228 29.375 8.125H31.875V11.875H8.125V8.125H10.625ZM8.125 31.875V15.625H31.875V31.875H8.125ZM26.9516 18.6734C27.1264 18.8476 27.2651 19.0546 27.3597 19.2825C27.4543 19.5104 27.503 19.7548 27.503 20.0016C27.503 20.2483 27.4543 20.4927 27.3597 20.7206C27.2651 20.9485 27.1264 21.1555 26.9516 21.3297L19.4516 28.8297C19.2774 29.0045 19.0704 29.1432 18.8425 29.2378C18.6146 29.3325 18.3702 29.3812 18.1234 29.3812C17.8767 29.3812 17.6323 29.3325 17.4044 29.2378C17.1765 29.1432 16.9695 29.0045 16.7953 28.8297L13.0453 25.0797C12.6931 24.7274 12.4952 24.2497 12.4952 23.7516C12.4952 23.2534 12.6931 22.7757 13.0453 22.4234C13.3976 22.0712 13.8753 21.8733 14.3734 21.8733C14.8716 21.8733 15.3493 22.0712 15.7016 22.4234L18.125 24.8438L24.2984 18.6688C24.4729 18.4947 24.6799 18.3568 24.9077 18.2628C25.1355 18.1689 25.3796 18.1207 25.626 18.1212C25.8724 18.1216 26.1163 18.1706 26.3437 18.2654C26.5712 18.3601 26.7777 18.4988 26.9516 18.6734Z" fill="#B36F00"/>
</svg>
