<svg width="40" height="40" viewBox="0 0 40 40" fill="none" xmlns="http://www.w3.org/2000/svg">
<path d="M34.1215 32.5187C34.1122 32.5 34.1043 32.4797 34.095 32.4609L27.1356 17.6375L30.1559 12.9C30.1653 12.8859 30.1747 12.8719 30.1825 12.8578C30.4739 12.3721 30.6278 11.8164 30.6278 11.25C30.6278 10.6836 30.4739 10.1279 30.1825 9.64219C30.1606 9.60469 30.1356 9.56719 30.1106 9.53125L26.8747 4.9125V1.875C26.8747 1.37772 26.6771 0.900805 26.3255 0.549175C25.9738 0.197544 25.4969 0 24.9997 0C24.5024 0 24.0255 0.197544 23.6738 0.549175C23.3222 0.900805 23.1247 1.37772 23.1247 1.875V4.84375L22.4403 5.69844C22.1475 6.06455 21.7761 6.3601 21.3537 6.56321C20.9312 6.76632 20.4684 6.87178 19.9997 6.87178C19.5309 6.87178 19.0681 6.76632 18.6456 6.56321C18.2232 6.3601 17.8518 6.06455 17.559 5.69844L16.8747 4.84375V1.875C16.8747 1.37772 16.6771 0.900805 16.3255 0.549175C15.9738 0.197544 15.4969 0 14.9997 0C14.5024 0 14.0255 0.197544 13.6738 0.549175C13.3222 0.900805 13.1247 1.37772 13.1247 1.875V4.9125L9.89184 9.53125C9.86684 9.56719 9.84184 9.60469 9.81997 9.64219C9.52856 10.1279 9.37463 10.6836 9.37463 11.25C9.37463 11.8164 9.52856 12.3721 9.81997 12.8578C9.81997 12.8719 9.83716 12.8859 9.84653 12.9L12.8637 17.6375L5.90434 32.4609C5.89497 32.4797 5.88716 32.5 5.87778 32.5187C5.67403 32.994 5.59142 33.5125 5.63735 34.0276C5.68328 34.5426 5.85632 35.0383 6.14095 35.47C6.42558 35.9018 6.81291 36.2561 7.2682 36.5013C7.7235 36.7466 8.23253 36.8749 8.74966 36.875H31.2497C31.7669 36.8752 32.2761 36.747 32.7316 36.5019C33.1871 36.2568 33.5747 35.9025 33.8595 35.4707C34.1443 35.0389 34.3175 34.5432 34.3635 34.028C34.4095 33.5127 34.3269 32.9942 34.1231 32.5187H34.1215ZM19.9997 10.625C20.9066 10.6268 21.8049 10.4482 22.6421 10.0995C23.4793 9.75074 24.2388 9.23889 24.8762 8.59375L26.7512 11.2656L23.9715 15.625H16.0278L13.2528 11.2688L15.1278 8.59688C15.7649 9.24089 16.5238 9.75184 17.3601 10.1C18.1965 10.4482 19.0937 10.6266 19.9997 10.625ZM9.73559 33.125L16.1903 19.375H23.809L30.2637 33.125H9.73559Z" fill="#B36F00"/>
</svg>
