<svg width="40" height="40" viewBox="0 0 40 40" fill="none" xmlns="http://www.w3.org/2000/svg">
<path d="M36.3687 21.5438C35.8175 21.1215 35.1756 20.8332 34.4937 20.7017C36.9047 17.9595 38.125 15.2142 38.125 12.5001C38.125 8.02041 34.5172 4.37509 30.0844 4.37509C27.9496 4.36486 25.8974 5.19889 24.375 6.69541C22.8526 5.19889 20.8004 4.36486 18.6656 4.37509C14.2328 4.37509 10.625 8.02041 10.625 12.5001C10.625 14.086 11.05 15.672 11.9094 17.297C11.2234 17.58 10.6005 17.9964 10.0766 18.522L6.71875 21.8751H3.125C2.2962 21.8751 1.50134 22.2043 0.915291 22.7904C0.32924 23.3764 0 24.1713 0 25.0001L0 31.2501C0 32.0789 0.32924 32.8738 0.915291 33.4598C1.50134 34.0459 2.2962 34.3751 3.125 34.3751H18.75C18.9033 34.3752 19.056 34.3563 19.2047 34.3188L29.2047 31.8188C29.3003 31.7954 29.3939 31.764 29.4844 31.7251L35.55 29.1407C35.5859 29.1267 35.6203 29.111 35.6547 29.0938C36.3331 28.7545 36.9139 28.2481 37.3426 27.6223C37.7713 26.9965 38.0337 26.272 38.1051 25.5168C38.1765 24.7617 38.0546 24.0008 37.7508 23.3057C37.4471 22.6107 36.9715 22.0044 36.3687 21.5438ZM18.6656 8.12509C19.5104 8.11206 20.3399 8.35131 21.048 8.81223C21.7561 9.27316 22.3106 9.93482 22.6406 10.7126C22.7819 11.0565 23.0222 11.3506 23.331 11.5576C23.6398 11.7646 24.0032 11.8752 24.375 11.8752C24.7468 11.8752 25.1102 11.7646 25.419 11.5576C25.7278 11.3506 25.9681 11.0565 26.1094 10.7126C26.4394 9.93482 26.9939 9.27316 27.702 8.81223C28.4101 8.35131 29.2396 8.11206 30.0844 8.12509C32.4094 8.12509 34.375 10.1282 34.375 12.5001C34.375 15.322 32.0312 18.5688 27.5969 21.9048L26.875 22.072C26.875 22.0063 26.875 21.9407 26.875 21.8751C26.875 20.549 26.3482 19.2772 25.4105 18.3396C24.4729 17.4019 23.2011 16.8751 21.875 16.8751H16.0484C14.9094 15.2751 14.375 13.8704 14.375 12.5001C14.375 10.1282 16.3406 8.12509 18.6656 8.12509ZM3.75 25.6251H5.625V30.6251H3.75V25.6251ZM34.0125 25.7204L28.1516 28.2204L18.5187 30.6251H9.375V24.5313L12.7281 21.1782C12.9014 21.003 13.1078 20.8639 13.3352 20.769C13.5627 20.674 13.8067 20.6251 14.0531 20.6251H21.875C22.2065 20.6251 22.5245 20.7568 22.7589 20.9912C22.9933 21.2256 23.125 21.5436 23.125 21.8751C23.125 22.2066 22.9933 22.5246 22.7589 22.759C22.5245 22.9934 22.2065 23.1251 21.875 23.1251H17.5C17.0027 23.1251 16.5258 23.3226 16.1742 23.6743C15.8225 24.0259 15.625 24.5028 15.625 25.0001C15.625 25.4974 15.8225 25.9743 16.1742 26.3259C16.5258 26.6775 17.0027 26.8751 17.5 26.8751H22.5C22.6414 26.8751 22.7824 26.8594 22.9203 26.8282L33.3891 24.4204L33.4625 24.4017C33.5692 24.3726 33.6812 24.3686 33.7898 24.3898C33.8983 24.411 34.0005 24.4569 34.0885 24.524C34.1764 24.5911 34.2477 24.6776 34.2969 24.7766C34.346 24.8757 34.3717 24.9848 34.3719 25.0954C34.3726 25.2221 34.3398 25.3467 34.2766 25.4565C34.2135 25.5663 34.1224 25.6574 34.0125 25.7204Z" fill="#B36F00"/>
</svg>
