<svg width="18" height="18" viewBox="0 0 18 18" fill="none" xmlns="http://www.w3.org/2000/svg">
<path d="M12.6563 16.3125C12.6563 16.5363 12.5674 16.7509 12.4092 16.9092C12.251 17.0674 12.0364 17.1563 11.8126 17.1563H6.18759C5.96382 17.1563 5.74921 17.0674 5.59097 16.9092C5.43274 16.7509 5.34384 16.5363 5.34384 16.3125C5.34384 16.0888 5.43274 15.8741 5.59097 15.7159C5.74921 15.5577 5.96382 15.4688 6.18759 15.4688H11.8126C12.0364 15.4688 12.251 15.5577 12.4092 15.7159C12.5674 15.8741 12.6563 16.0888 12.6563 16.3125ZM15.4688 7.31254C15.4714 8.29283 15.25 9.26075 14.8214 10.1424C14.3928 11.024 13.7684 11.7961 12.996 12.3996C12.8913 12.4793 12.8063 12.5819 12.7475 12.6995C12.6886 12.8171 12.6574 12.9466 12.6563 13.0782V13.2188C12.6563 13.5917 12.5082 13.9494 12.2445 14.2132C11.9807 14.4769 11.6231 14.625 11.2501 14.625H6.75009C6.37713 14.625 6.01945 14.4769 5.75573 14.2132C5.492 13.9494 5.34384 13.5917 5.34384 13.2188V13.0782C5.34369 12.9488 5.31381 12.8213 5.25651 12.7053C5.19921 12.5894 5.11602 12.4882 5.01338 12.4095C4.24301 11.8094 3.61922 11.042 3.18921 10.1653C2.7592 9.28861 2.53424 8.32558 2.53134 7.3491C2.51236 3.84543 5.34384 0.928161 8.8447 0.843786C9.70718 0.823062 10.5651 0.975069 11.3679 1.29086C12.1708 1.60666 12.9024 2.07986 13.5196 2.68261C14.1368 3.28537 14.6272 4.0055 14.962 4.80063C15.2968 5.59575 15.4691 6.44981 15.4688 7.31254ZM13.7813 7.31254C13.7815 6.67477 13.6541 6.04341 13.4066 5.45563C13.1591 4.86785 12.7965 4.33552 12.3402 3.88999C11.8838 3.44446 11.343 3.09473 10.7494 2.86139C10.1559 2.62805 9.52166 2.51581 8.88408 2.53129C6.29728 2.59316 4.20478 4.74964 4.21884 7.33925C4.22126 8.06096 4.38772 8.77268 4.70564 9.42059C5.02357 10.0685 5.48464 10.6357 6.054 11.0792C6.34083 11.3006 6.5766 11.5811 6.74525 11.9018C6.91391 12.2225 7.01148 12.5758 7.03134 12.9375H10.9759C10.9961 12.575 11.0938 12.2211 11.2624 11.8996C11.431 11.578 11.6666 11.2964 11.9532 11.0736C12.5242 10.6272 12.9857 10.0564 13.3025 9.40461C13.6194 8.75281 13.7831 8.03725 13.7813 7.31254ZM12.3702 6.93847C12.2955 6.30713 12.0459 5.70923 11.6494 5.21226C11.253 4.71529 10.7255 4.33904 10.1265 4.12597C9.91714 4.05757 9.68934 4.07374 9.49174 4.17103C9.29414 4.26832 9.14242 4.43902 9.06899 4.64667C8.99555 4.85431 9.00621 5.08244 9.09871 5.28233C9.1912 5.48222 9.35819 5.63801 9.564 5.71644C9.865 5.82195 10.1305 6.00956 10.3304 6.25808C10.5303 6.50659 10.6567 6.80608 10.6953 7.12269C10.7199 7.34516 10.8319 7.54874 11.0066 7.68865C11.0932 7.75792 11.1925 7.80948 11.2989 7.84037C11.4053 7.87127 11.5168 7.8809 11.627 7.86871C11.7371 7.85652 11.8438 7.82275 11.9409 7.76934C12.038 7.71592 12.1237 7.6439 12.1929 7.55739C12.2622 7.47088 12.3138 7.37157 12.3447 7.26514C12.3755 7.1587 12.3852 7.04722 12.373 6.93707L12.3702 6.93847Z" fill="#FFAE00"/>
</svg>
