<svg width="40" height="40" viewBox="0 0 40 40" fill="none" xmlns="http://www.w3.org/2000/svg">
<path d="M35.6013 33.3625L32.1638 5.8625C32.0693 5.10657 31.702 4.41118 31.1308 3.90707C30.5596 3.40295 29.824 3.12483 29.0622 3.125H10.9372C10.1754 3.12483 9.43976 3.40295 8.86861 3.90707C8.29745 4.41118 7.93011 5.10657 7.83564 5.8625L4.39814 33.3625C4.34319 33.8022 4.38239 34.2486 4.51315 34.672C4.6439 35.0955 4.86322 35.4862 5.15654 35.8184C5.44986 36.1506 5.81048 36.4166 6.21446 36.5988C6.61845 36.7809 7.05655 36.8751 7.4997 36.875H13.8575C14.5511 36.8771 15.2256 36.6478 15.7741 36.2232C16.3226 35.7987 16.7138 35.2032 16.8856 34.5312L19.9997 22.5L23.1106 34.5219C23.2823 35.1953 23.6736 35.7923 24.2225 36.2185C24.7715 36.6447 25.4469 36.8757 26.1419 36.875H32.4997C32.9429 36.8751 33.381 36.7809 33.7849 36.5988C34.1889 36.4166 34.5495 36.1506 34.8429 35.8184C35.1362 35.4862 35.3555 35.0955 35.4863 34.672C35.617 34.2486 35.6562 33.8022 35.6013 33.3625ZM28.5106 6.875L28.8231 9.375H11.1763L11.4888 6.875H28.5106ZM13.3747 33.125H8.20752L9.95752 19.125C11.3024 18.7503 12.5018 17.9759 13.3968 16.9045C14.2919 15.8331 14.8405 14.5151 14.97 13.125H18.1247V14.7609L13.3747 33.125ZM26.6263 33.125L21.8747 14.7609V13.125H25.0294C25.1588 14.515 25.7073 15.8328 26.6025 16.904C27.4976 17.9752 28.697 18.7492 30.0419 19.1234L31.7919 33.125H26.6263Z" fill="#B36F00"/>
</svg>
