<svg width="40" height="40" viewBox="0 0 40 40" fill="none" xmlns="http://www.w3.org/2000/svg">
<path d="M20 20C20 20.4973 19.8025 20.9742 19.4508 21.3258C19.0992 21.6775 18.6223 21.875 18.125 21.875H7.5C7.00272 21.875 6.52581 21.6775 6.17417 21.3258C5.82254 20.9742 5.625 20.4973 5.625 20C5.625 19.5027 5.82254 19.0258 6.17417 18.6742C6.52581 18.3225 7.00272 18.125 7.5 18.125H18.125C18.6223 18.125 19.0992 18.3225 19.4508 18.6742C19.8025 19.0258 20 19.5027 20 20ZM7.5 11.875H28.125C28.6223 11.875 29.0992 11.6775 29.4508 11.3258C29.8025 10.9742 30 10.4973 30 10C30 9.50272 29.8025 9.02581 29.4508 8.67417C29.0992 8.32254 28.6223 8.125 28.125 8.125H7.5C7.00272 8.125 6.52581 8.32254 6.17417 8.67417C5.82254 9.02581 5.625 9.50272 5.625 10C5.625 10.4973 5.82254 10.9742 6.17417 11.3258C6.52581 11.6775 7.00272 11.875 7.5 11.875ZM15.625 28.125H7.5C7.00272 28.125 6.52581 28.3225 6.17417 28.6742C5.82254 29.0258 5.625 29.5027 5.625 30C5.625 30.4973 5.82254 30.9742 6.17417 31.3258C6.52581 31.6775 7.00272 31.875 7.5 31.875H15.625C16.1223 31.875 16.5992 31.6775 16.9508 31.3258C17.3025 30.9742 17.5 30.4973 17.5 30C17.5 29.5027 17.3025 29.0258 16.9508 28.6742C16.5992 28.3225 16.1223 28.125 15.625 28.125ZM36.3266 24.9234C36.1524 24.7486 35.9454 24.6099 35.7175 24.5153C35.4896 24.4207 35.2452 24.372 34.9984 24.372C34.7517 24.372 34.5073 24.4207 34.2794 24.5153C34.0515 24.6099 33.8445 24.7486 33.6703 24.9234L30.625 27.9688V17.5C30.625 17.0027 30.4275 16.5258 30.0758 16.1742C29.7242 15.8225 29.2473 15.625 28.75 15.625C28.2527 15.625 27.7758 15.8225 27.4242 16.1742C27.0725 16.5258 26.875 17.0027 26.875 17.5V27.9688L23.8266 24.9187C23.4743 24.5665 22.9966 24.3686 22.4984 24.3686C22.0003 24.3686 21.5226 24.5665 21.1703 24.9187C20.8181 25.271 20.6202 25.7487 20.6202 26.2469C20.6202 26.745 20.8181 27.2228 21.1703 27.575L27.4203 33.825C27.5945 33.9998 27.8015 34.1385 28.0294 34.2331C28.2573 34.3278 28.5017 34.3765 28.7484 34.3765C28.9952 34.3765 29.2396 34.3278 29.4675 34.2331C29.6954 34.1385 29.9024 33.9998 30.0766 33.825L36.3266 27.575C36.6782 27.2234 36.8757 26.7465 36.8757 26.2492C36.8757 25.752 36.6782 25.2751 36.3266 24.9234Z" fill="#B36F00"/>
</svg>
